<svg xmlns="http://www.w3.org/2000/svg" xmlns:xlink="http://www.w3.org/1999/xlink" fill="none" version="1.1" width="129.9755859375" height="139.442138671875" viewBox="0 0 129.9755859375 139.442138671875"><defs><mask id="master_svg0_0_162" style="mask-type:alpha" maskUnits="userSpaceOnUse"><g><g><path d="M170.53684997558594,95.90643310546875C170.53684997558594,95.90643310546875,202.54204997558594,95.90643310546875,202.54204997558594,95.90643310546875C202.54204997558594,95.90643310546875,202.54204997558594,140.46973310546875,202.54204997558594,140.46973310546875C202.54204997558594,140.46973310546875,170.53684997558594,140.46973310546875,170.53684997558594,140.46973310546875C170.53684997558594,140.46973310546875,170.53684997558594,95.90643310546875,170.53684997558594,95.90643310546875C170.53684997558594,95.90643310546875,170.53684997558594,95.90643310546875,170.53684997558594,95.90643310546875Z" fill="#000000" fill-opacity="1"/></g></g></mask></defs><g transform="matrix(-0.8000431060791016,0.5999425649642944,-0.5999425649642944,-0.8000431060791016,291.50000889926014,94.65782733005472)"><g><path d="M141.7526858212224,214.5171252105713C135.6020958212224,206.9724252105713,131.62641582122242,197.2263252105713,131.15719582122242,186.2001252105713C130.7196768212224,175.91742521057128,133.4747558212224,165.8210252105713,137.7246858212224,157.25452521057127C140.29268582122242,152.0752252105713,143.34418582122242,148.1800252105713,146.9315858212224,144.2664252105713C151.13078582122242,139.6851252105713,155.46468582122242,135.30252521057128,159.8857858212224,131.0838252105713C161.1063858212224,129.9205252105713,175.3478858212224,116.1849812105713,176.5098858212224,118.85140521057129C176.8743858212224,119.6910652105713,177.87308582122242,118.93946521057129,177.5068858212224,118.09980521057129C176.32598582122242,115.38628521057129,172.09508582122243,118.91489521057129,170.84908582122242,119.8118952105713C166.3026858212224,123.08041521057129,162.0654858212224,127.11892521057129,157.9058858212224,131.1370252105713C150.0924858212224,138.68372521057128,141.79868582122242,146.27542521057129,136.46603582122242,157.02712521057128C132.09721582122242,165.83332521057127,129.5783308212224,176.2799252105713,130.0269434212224,186.77762521057127C130.5009188212224,197.9287252105713,134.7397458212224,207.9718252105713,140.9362858212224,215.5718252105713C141.4752858212224,216.2353252105713,142.2947858212224,215.18272521057128,141.7526858212224,214.5171252105713C141.7526858212224,214.5171252105713,141.7526858212224,214.5171252105713,141.7526858212224,214.5171252105713Z" fill="#FFFFFF" fill-opacity="1"/></g><g mask="url(#master_svg0_0_162)"><g><g transform="matrix(1,-8.097744163591968e-17,7.253475984817065e-17,1,0,1.4210854715202004e-14)"><path d="M176.5158353439492,117.45920000099805C173.65771534394918,111.20270000099805,171.70315934394918,104.07998000099805,172.1375053439492,96.73195200099805C171.80778334394918,96.90807500099805,171.47964634394918,97.08420000099805,171.14992434394918,97.25827000099805C178.7557253439492,108.78620000099805,190.92214534394918,110.18700000099805,201.6206453439492,113.43910000099805C201.6206453439492,112.95990000099805,201.6206453439492,112.48070000099806,201.6206453439492,112.00140000099805C190.73034534394918,117.22780000099806,182.6426453439492,128.04710000099806,175.1129253439492,139.05280000099805C175.4347253439492,139.16330000099805,175.75810534394918,139.27190000099804,176.07990534394918,139.38250000099805C174.9480653439492,131.95050000099803,174.0017053439492,123.64400000099805,175.0891553439492,116.11580000099805C175.2254753439492,115.17580000099805,174.11108534394918,114.77440000099804,173.9747553439492,115.71850000099805C172.84450534394918,123.53550000099806,173.7892853439492,132.05290000099805,174.9655053439492,139.77980000099805C175.0463553439492,140.31840000099805,175.6534853439492,140.51290000099806,175.9308953439492,140.10740000099804C183.31004534394918,129.32090000099805,191.2455453439492,118.56720000099804,201.9282453439492,113.43910000099805C202.4291453439492,113.19950000099806,202.52744534394918,112.18370000099804,201.9282453439492,112.00140000099805C191.43574534394918,108.81070000099805,179.4310253439492,107.51230000099805,171.96788534394918,96.20358200099805C171.6128033439492,95.66497200099805,171.0167672439492,96.14419100099805,170.98189264394918,96.73195200099805C170.5332803439492,104.32573000099805,172.56550534394918,111.74750000099804,175.5187453439492,118.21290000099805C175.8960153439492,119.04020000099806,176.8962853439492,118.29070000099804,176.5158353439492,117.45920000099805C176.5158353439492,117.45920000099805,176.5158353439492,117.45920000099805,176.5158353439492,117.45920000099805Z" fill="#FFFFFF" fill-opacity="1"/></g></g></g><g><path d="M181.54895503540038,124.87017789459229C181.3064150354004,122.35327789459228,184.1597850354004,119.49230789459229,185.4009550354004,117.99320789459229C187.3618550354004,115.62578789459229,189.4860550354004,113.46724789459229,191.6641550354004,111.44592789459229C191.4311550354004,111.05476789459229,191.1980550354004,110.66361189459228,190.9634550354004,110.27450189459229C186.27915503540038,114.96224789459228,181.48395503540038,119.48206789459229,177.9949250354004,125.77337789459229C177.58594503540039,126.51057789459229,178.4340350354004,127.18027789459228,178.9032450354004,126.67857789459228C181.4459150354004,123.94867789459228,183.3053550354004,120.40567789459229,185.3423550354004,117.08391789459229C185.03955503540038,116.78287789459229,184.7367550354004,116.48182789459229,184.4340250354004,116.18077789459228C182.26070503540038,120.98937789459228,179.47392503540038,125.28187789459228,177.4987650354004,130.2501778945923C177.1833050354004,131.0447778945923,177.9014050354004,131.66327789459228,178.4070850354004,131.1532778945923C182.3098550354004,127.22327789459229,184.2136750354004,121.25147789459228,187.32385503540038,116.44495789459228C187.0210550354004,116.14391789459228,186.7182550354004,115.84286789459229,186.4155550354004,115.53976789459229C184.1566150354004,121.81257789459228,179.9891150354004,126.50447789459228,177.00417503540038,132.16907789459228C176.6173850354004,132.90017789459228,177.4448650354004,133.6149778945923,177.91249503540038,133.07227789459228C181.8548950354004,128.49507789459227,184.37219503540038,122.30007789459228,188.3145550354004,117.72287789459229C188.0118550354004,117.42182789459228,187.70905503540038,117.12078789459228,187.4062550354004,116.81973789459228C185.43585503540038,120.46307789459229,182.73151503540038,123.45097789459228,180.5613750354004,126.90177789459229C180.0858150354004,127.65947789459229,180.7928150354004,128.54217789459227,181.3793350354004,127.95647789459228C185.2900550354004,124.05307789459229,187.87075503540038,118.42941789459229,191.7814550354004,114.52603789459229C191.50875503540038,114.17378789459228,191.2361550354004,113.82154789459229,190.96505503540038,113.47134789459228C188.39065503540039,116.10090789459228,185.64665503540039,118.49904789459228,183.5336250354004,121.78397789459228C183.0659950354004,122.51297789459228,183.8094550354004,123.52467789459229,184.35159503540038,122.84067789459229C187.3840550354004,119.00898789459228,190.97455503540039,116.07837789459228,194.63635503540038,113.36280789459228C194.3732550354004,113.02284789459229,194.1100550354004,112.68288789459228,193.8453550354004,112.34292789459228C192.2760550354004,116.14186789459228,189.52415503540038,118.48266789459228,186.6231550354004,120.38927789459228C186.85625503540038,120.78047789459228,187.09085503540038,121.16957789459228,187.32385503540038,121.56077789459229C190.08055503540038,118.12632789459228,193.63455503540038,115.94526789459229,197.11405503540038,114.00380789459228C196.9190550354004,113.57374789459229,196.7240550354004,113.14367789459229,196.5306550354004,112.71360789459229C194.24165503540038,114.47073789459229,191.88445503540038,116.07428789459229,189.5954550354004,117.83141789459228C189.04375503540038,118.25534789459229,189.40675503540038,119.47182789459228,190.0408550354004,119.19535789459229C192.8482550354004,117.97272789459228,195.5542550354004,116.57193789459228,197.72595503540037,113.88707789459228C198.0905550354004,113.43652789459229,197.8147550354004,112.60710789459229,197.31695503540038,112.61325789459228C192.73885503540038,112.66854789459228,188.22105503540038,113.78467789459228,183.79043503540038,115.19776789459229C183.9378550354004,115.65240789459229,184.0868650354004,116.10704789459228,184.2358750354004,116.56169789459229C185.20285503540038,116.03127789459228,186.2395550354004,115.81623789459229,187.20815503540038,115.28377789459229C187.0131550354004,114.85370789459229,186.8181550354004,114.42363789459229,186.6247550354004,113.99356789459229C183.0881850354004,116.02922789459228,180.0477650354004,119.16463789459229,176.7172550354004,121.66927789459228C176.9803950354004,122.00927789459229,177.2435450354004,122.34917789459229,177.5082750354004,122.68917789459229C178.6385250354004,119.86912789459228,180.16348503540038,117.62252789459228,182.25436503540038,115.92273789459229C182.0213450354004,115.53157789459229,181.7867350354004,115.14246789459229,181.55370503540038,114.75130789459229C179.9050950354004,117.38291789459228,177.4416950354004,118.71203789459229,175.2319210354004,120.38927789459228C175.5140850354004,120.66987789459229,175.7978350354004,120.95247789459228,176.0800050354004,121.23307789459228C176.35107503540038,120.33807789459229,176.55556503540038,119.38990789459228,176.8979650354004,118.53796789459228C177.3640150354004,117.37063789459228,178.47524503540038,116.62517789459228,179.28211503540038,115.92273789459229C179.8020550354004,115.47218789459228,179.48977503540038,114.27823789459228,178.8366750354004,114.55880789459229C177.30853503540038,115.22028789459229,175.8358850354004,115.89815789459229,174.62003203540038,117.30919789459229C174.8926870354004,117.66143789459228,175.16375703540038,118.01368789459228,175.4364120354004,118.36388789459228C177.2007450354004,116.23402789459229,179.3375950354004,115.44761789459228,181.6218750354004,114.71854789459229C181.4031150354004,114.35400789459229,181.18594503540038,113.98947789459228,180.9687650354004,113.62289789459228C178.9048350354004,118.23691789459228,176.5428850354004,122.66657789459228,175.4617750354004,127.87047789459228C175.29374303540038,128.6773778945923,176.2084050354004,129.20777789459228,176.51751503540038,128.4458778945923C177.1626950354004,126.86697789459228,177.95054503540038,125.41697789459229,178.9048350354004,124.12067789459229C178.6020650354004,123.81957789459229,178.2992850354004,123.51857789459228,177.9965150354004,123.21547789459228C177.0644150354004,125.73447789459229,176.48106503540038,128.3680778945923,175.95635503540038,131.0693778945923C175.77405503540038,132.01137789459227,176.8250450354004,132.36367789459229,177.0723450354004,131.4666778945923C177.9854150354004,128.14077789459228,177.5907050354004,124.85177789459229,177.0723450354004,121.47677789459229C176.9597950354004,120.74977789459228,176.0815850354004,120.77427789459229,175.95635503540038,121.47677789459229C175.45860503540038,124.28037789459228,175.44275503540038,127.12297789459228,175.4411650354004,129.9879778945923C175.8200350354004,129.92247789459228,176.1973050354004,129.85487789459228,176.57617503540038,129.7893778945923C176.26071503540038,127.59397789459229,176.1497550354004,125.33507789459229,176.71567503540038,123.19297789459229C177.49083503540038,120.26027789459229,179.89717503540038,120.70267789459228,181.6710150354004,121.67947789459228C181.9959850354004,121.85767789459229,182.4303250354004,121.7491778945923,182.5206850354004,121.23307789459228C183.1468350354004,117.66758789459229,187.4126550354004,116.10295789459228,189.88875503540038,116.02513789459229C190.6321550354004,116.00055789459229,190.63375503540038,114.50965789459228,189.88875503540038,114.53217789459228C186.89905503540038,114.62638789459228,182.15925503540038,116.54735789459228,181.4062850354004,120.83577789459228C181.68845503540038,120.68827789459229,181.97220503540038,120.53877789459229,182.25436503540038,120.38927789459228C180.2617650354004,119.29365789459229,177.9172550354004,118.69360789459229,176.33997503540039,121.07537789459228C174.7531890354004,123.47147789459228,175.05279303540038,127.34007789459228,175.4617750354004,130.1866778945923C175.5838350354004,131.0324778945923,176.5967850354004,130.81127789459228,176.5967850354004,129.9879778945923C176.59836503540038,127.26017789459229,176.5967850354004,124.54667789459228,177.0723450354004,121.87197789459229C176.69981503540038,121.87197789459229,176.3288850354004,121.87197789459229,175.9579450354004,121.87197789459229C176.4398450354004,125.00947789459228,176.80602503540038,127.97897789459229,175.9579450354004,131.0693778945923C176.3288850354004,131.2003778945923,176.69981503540038,131.33347789459228,177.0723450354004,131.4666778945923C177.5716750354004,128.8923778945923,178.10589503540038,126.37137789459229,178.9951950354004,123.96907789459229C179.26626503540038,123.23797789459229,178.5640150354004,122.41677789459229,178.0868750354004,123.06597789459228C177.06917503540038,124.45037789459228,176.2084050354004,126.00267789459228,175.5204250354004,127.69227789459228C175.8723450354004,127.88477789459229,176.2242550354004,128.07727789459227,176.57617503540038,128.26777789459229C177.6319150354004,123.18887789459228,179.9542350354004,118.87587789459229,181.9674450354004,114.37653789459229C182.2258350354004,113.79901789459228,181.8041750354004,113.12523789459229,181.31434503540038,113.28088789459228C178.82240503540038,114.07548789459229,176.5349550354004,114.99501789459228,174.62003203540038,117.30919789459229C174.0731380354004,117.97067789459228,174.88634603540038,119.00489789459229,175.4379970354004,118.36593789459229C176.49691503540038,117.13511789459228,177.81738503540038,116.57398789459228,179.1457850354004,115.99850789459228C178.9967750354004,115.54386789459228,178.84935503540038,115.08922789459228,178.7003450354004,114.63457789459228C177.8237250354004,115.39641789459229,176.7838350354004,116.17463789459228,176.1497550354004,117.30304789459228C175.5663950354004,118.34135789459228,175.3238620354004,119.65613789459229,174.9671920354004,120.83577789459228C174.77538203540038,121.47057789459228,175.4110490354004,121.98667789459229,175.8152750354004,121.67947789459228C178.1122350354004,119.93670789459229,180.6596550354004,118.54000789459229,182.3716750354004,115.80804789459228C182.7600450354004,115.18752789459228,182.2670450354004,114.15126789459228,181.6710150354004,114.63457789459228C179.42161503540038,116.46339789459229,177.73019503540038,118.89430789459229,176.51117503540038,121.93757789459228C176.2512050354004,122.58677789459229,176.7822450354004,123.34857789459228,177.3021950354004,122.95947789459228C180.6327050354004,120.45487789459229,183.6731250354004,117.31738789459229,187.20815503540038,115.28377789459229C187.8929550354004,114.89056789459228,187.3000550354004,113.62493789459228,186.6247550354004,113.99561789459229C185.65775503540038,114.52808789459229,184.6210550354004,114.74311789459229,183.6525150354004,115.27558789459229C183.03111503540038,115.61758789459229,183.4860750354004,116.83406789459228,184.0979550354004,116.63951789459229C188.43345503540039,115.25510789459229,192.8403550354004,114.16149789459229,197.31855503540038,114.10620789459229C197.1822550354004,113.68228789459229,197.0458550354004,113.25835789459228,196.91115503540038,112.83443789459228C194.88365503540038,115.33906789459229,192.35365503540038,116.61903789459228,189.7349550354004,117.75769789459228C189.8839550354004,118.21233789459228,190.0329550354004,118.66697789459229,190.1803550354004,119.12162789459228C192.4694550354004,117.36448789459229,194.8266550354004,115.76299789459229,197.11565503540038,114.00585789459228C197.7734550354004,113.50001789459229,197.1980550354004,112.34497789459229,196.5322550354004,112.71769789459229C192.9560550354004,114.71444789459228,189.34185503540039,116.97742789459228,186.5090550354004,120.50807789459229C186.0176550354004,121.11837789459229,186.6390550354004,122.05427789459229,187.20815503540038,121.67947789459228C190.2802550354004,119.66228789459228,193.18755503540038,117.11463789459228,194.8456550354004,113.09861789459228C195.1151550354004,112.44532789459228,194.5713550354004,111.69577789459228,194.0546550354004,112.07669789459229C190.3087550354004,114.85370789459229,186.6374550354004,117.86828789459229,183.5367950354004,121.78807789459229C183.8094550354004,122.13827789459228,184.0805250354004,122.49047789459229,184.3531750354004,122.84277789459229C186.4662550354004,119.55783789459228,189.2102550354004,117.15969789459228,191.7830550354004,114.52808789459229C192.3711550354004,113.92803789459228,191.5452550354004,112.89587789459229,190.96665503540038,113.47339789459228C187.0559550354004,117.37677789459228,184.47525503540038,123.00047789459228,180.56454503540039,126.90377789459228C180.83719503540038,127.25607789459228,181.1082650354004,127.60627789459228,181.3809250354004,127.95847789459228C183.6144750354004,124.40527789459229,186.37585503540038,121.32927789459228,188.4065550354004,117.57542789459228C188.7996550354004,116.84840789459228,187.96425503540038,116.12957789459229,187.4982550354004,116.67023789459229C183.5558250354004,121.24737789459229,181.0401050354004,127.44447789459228,177.0961150354004,132.0195778945923C177.3988950354004,132.32067789459228,177.7016650354004,132.62377789459228,178.00444503540038,132.9247778945923C180.98779503540038,127.26217789459228,185.1552550354004,122.57237789459228,187.4157550354004,116.29750789459229C187.6725550354004,115.58072789459229,186.9592550354004,114.69601789459229,186.5074550354004,115.39231789459228C183.4020550354004,120.19067789459228,181.48395503540038,126.18087789459229,177.59228503540038,130.10067789459228C177.8950650354004,130.40377789459228,178.19624503540038,130.7047778945923,178.50060503540038,131.0058778945923C180.47418503540038,126.03757789459229,183.26097503540038,121.74507789459228,185.43425503540038,116.93646789459228C185.75605503540038,116.22378789459229,184.94285503540038,115.35340789459228,184.5259550354004,116.03127789459228C182.4889750354004,119.35509789459229,180.6311250354004,122.89597789459228,178.0868750354004,125.62387789459228C178.38964503540038,125.92697789459228,178.6924150354004,126.22797789459229,178.9951950354004,126.52907789459229C182.4160550354004,120.35857789459229,187.1906550354004,115.92887789459229,191.7830550354004,111.33123789459229C192.29975503540038,110.81311189459228,191.61495503540038,109.66626189459228,191.08235503540038,110.15981689459228C188.59515503540038,112.46580789459229,186.19515503540038,114.94995789459229,183.97748503540038,117.68191789459229C182.6490850354004,119.31822789459228,180.1333650354004,122.16487789459228,180.39492503540038,124.87427789459228C180.4836950354004,125.81227789459228,181.64089503540038,125.82457789459228,181.54895503540038,124.87017789459229C181.54895503540038,124.87017789459229,181.54895503540038,124.87017789459229,181.54895503540038,124.87017789459229Z" fill="#FFFFFF" fill-opacity="1"/></g><g><path d="M183.1051424560547,112.63999329605103C180.49274245605469,111.33549329605103,177.8216324560547,110.73539329605103,175.02692245605468,110.69449329605102C175.21873245605468,110.94229329605102,175.41213245605468,111.19209329605103,175.60393245605468,111.43989329605103C175.60393245605468,111.22689329605103,175.60393245605468,111.01399329605103,175.60393245605468,110.80099329605102C175.4628524560547,111.04059329605103,175.32177245605467,111.28019329605102,175.1791024560547,111.52189329605102C177.34607245605469,110.45486329605103,179.9315424560547,109.54762329605103,182.1635424560547,110.80709329605102C182.21104245605468,110.35246329605103,182.25704245605468,109.89782329605103,182.3030424560547,109.44318329605102C179.19124245605468,110.56139329605102,176.5376224560547,107.80072329605102,174.44357245605468,105.15683329605102C174.17091245605468,105.50907329605103,173.8998424560547,105.86132329605103,173.6271924560547,106.21357329605102C174.43881245605468,107.06142329605103,175.4723624560547,107.57955329605103,176.51226245605469,107.71061329605102C176.51226245605469,107.21296329605103,176.51226245605469,106.71531329605102,176.51226245605469,106.21766329605103C173.71754245605467,106.11936329605102,171.12415245605467,104.55063329605102,169.5817524560547,101.47052329605103C169.4153024560547,101.84530329605103,169.2488624560547,102.22007329605103,169.0824124560547,102.59485329605103C171.9373624560547,102.70748329605102,174.32626245605468,104.48100329605103,176.71516245605468,106.33030329605103C176.8134424560547,105.86542329605102,176.9101424560547,105.40258329605102,177.0068424560547,104.93974329605102C174.90328245605468,104.93770329605103,173.18174245605468,104.68580329605102,171.2176824560547,103.68640329605103C171.16537245605468,104.17586329605102,171.1146424560547,104.66327329605103,171.06391245605468,105.15273329605103C173.9220424560547,105.18959329605103,176.3997124560547,105.98010329605103,178.6966424560547,108.24922329605103C178.74264245605468,107.79458329605103,178.78864245605467,107.33994329605102,178.8345424560547,106.88529329605103C176.0874224560547,107.38704329605102,174.17567245605468,105.91047329605102,172.4636524560547,103.23995329605103C172.32732245605467,103.66387329605102,172.1909924560547,104.08780329605102,172.05467245605467,104.51377329605103C177.8739424560547,105.29199329605103,183.5014424560547,108.81651329605103,188.10804245605468,113.36499329605103C188.25704245605468,112.91039329605103,188.40604245605468,112.45569329605102,188.55344245605468,112.00109329605102C185.54634245605467,111.35389329605103,182.5407424560547,110.74159329605102,179.4845424560547,110.69449329605102C178.8472424560547,110.68629329605102,178.6760424560547,112.02969329605102,179.33074245605468,112.16079329605103C182.12544245605469,112.72189329605102,184.96934245605468,112.77929329605102,187.7513424560547,113.44079329605103C187.7513424560547,112.95949329605102,187.7513424560547,112.48029329605103,187.7513424560547,112.00109329605102C183.89934245605468,113.77869329605103,179.79044245605468,113.83809329605103,176.30935245605468,110.79689329605102C176.2633824560547,111.25149329605102,176.2174124560547,111.70619329605103,176.17144245605468,112.16079329605103C181.80844245605468,109.65412329605103,187.96854245605468,110.82959329605103,193.6958424560547,112.16079329605103C193.7465424560547,111.67339329605103,193.79734245605468,111.18389329605102,193.84964245605468,110.69449329605102C190.3938424560547,111.29449329605103,186.90164245605467,111.37639329605102,183.4475424560547,111.97439329605102C182.73414245605468,112.09729329605102,182.6771424560547,113.46739329605103,183.4475424560547,113.46739329605103C183.94214245605468,113.46739329605103,184.4382424560547,113.46739329605103,184.9328424560547,113.46739329605103C185.6890424560547,113.46739329605103,185.66364245605467,112.05639329605103,184.9328424560547,111.97439329605102C179.27684245605468,111.33549329605103,170.80711245605468,109.36126329605102,169.14423245605468,101.00973929605102C168.86207045605468,101.29235629605103,168.5783194560547,101.57292329605103,168.2945674560547,101.85349329605103C172.3067124560547,105.01142329605102,174.5466024560547,112.33279329605102,175.90988245605467,117.80499329605102C177.1574324560547,122.81419329605103,178.88374245605468,132.09759329605103,174.7352424560547,135.73879329605103C175.0174124560547,136.02139329605103,175.3011624560547,136.30199329605102,175.58333245605468,136.58259329605102C176.29825245605468,131.58969329605102,180.01554245605467,128.17979329605103,181.96534245605469,123.96929329605102C182.19044245605468,123.48189329605103,181.9003424560547,122.84699329605102,181.46604245605468,122.84699329605102C180.80494245605468,122.84699329605102,180.1455424560547,122.84699329605102,179.4845424560547,122.84699329605102C178.7394424560547,122.84699329605102,178.7394424560547,124.33989329605103,179.4845424560547,124.33989329605103C180.1455424560547,124.33989329605103,180.80494245605468,124.33989329605103,181.46604245605468,124.33989329605103C181.2995424560547,123.96519329605103,181.13314245605468,123.59039329605102,180.9666424560547,123.21769329605102C178.9645424560547,127.54089329605102,175.20922245605468,131.01619329605103,174.4689324560547,136.18529329605104C174.38491245605468,136.77099329605102,174.86047245605468,137.43039329605102,175.3186024560547,137.02899329605103C179.72544245605468,133.15839329605103,178.54134245605468,124.43209329605102,177.35400245605467,118.83099329605102C176.51384245605468,114.87639329605102,175.2314124560547,111.03649329605102,173.62085245605468,107.50582329605102C172.4256024560547,104.88855329605103,170.92125245605467,102.17502329605102,168.87950745605468,100.56533529605103C168.43723645605468,100.21718429605103,167.9061934560547,100.78856129605103,168.02983895605468,101.40908929605102C169.8433124560547,110.51219329605102,178.7363424560547,112.76699329605103,184.9328424560547,113.46739329605103C184.9328424560547,112.96969329605102,184.9328424560547,112.47409329605102,184.9328424560547,111.97649329605102C184.4382424560547,111.97649329605102,183.94214245605468,111.97649329605102,183.4475424560547,111.97649329605102C183.4475424560547,112.47409329605102,183.4475424560547,112.96969329605102,183.4475424560547,113.46739329605103C186.90164245605467,112.86939329605103,190.3938424560547,112.78749329605103,193.84964245605468,112.18949329605103C194.4329424560547,112.08709329605102,194.7072424560547,110.88699329605103,194.0033424560547,110.72319329605102C188.07314245605468,109.34283329605103,181.69904245605468,108.12840329605102,175.8639124560547,110.72319329605102C175.37884245605468,110.93819329605103,175.3011624560547,111.71639329605102,175.7260024560547,112.08709329605102C179.43854245605468,115.33099329605102,183.9389424560547,115.34329329605103,188.0588424560547,113.44079329605103C188.5487424560547,113.21549329605102,188.6691424560547,112.14649329605102,188.0588424560547,112.00309329605102C185.27524245605468,111.34159329605103,182.4329424560547,111.28429329605103,179.63824245605468,110.72319329605102C179.58754245605468,111.21259329605103,179.53524245605468,111.69999329605102,179.4845424560547,112.18949329605103C182.43774245605468,112.23249329605102,185.34024245605468,112.81619329605103,188.2475424560547,113.44079329605103C188.91484245605469,113.58409329605102,189.21764245605468,112.59499329605103,188.69294245605468,112.07679329605102C183.9135424560547,107.36042329605102,178.08004245605468,103.82771329605103,172.05467245605467,103.02287329605103C171.4998424560547,102.94709329605102,171.36352245605468,103.85638329605102,171.6456824560547,104.29669329605103C173.65889245605467,107.43414329605102,175.9748724560547,108.90457329605103,179.1437424560547,108.32500329605102C179.70644245605467,108.22260329605102,179.61764245605468,107.29283329605103,179.2816424560547,106.96107329605103C176.82930245605468,104.53835329605103,174.1106724560547,103.70279329605103,171.06391245605468,103.66183329605103C170.36960245605468,103.65159329605103,170.3347224560547,104.83325329605103,170.91015245605467,105.12816329605103C172.9820124560547,106.18080329605102,174.79231245605467,106.43065329605102,177.0084224560547,106.43270329605103C177.58861245605468,106.43474329605102,177.79151245605468,105.42306329605103,177.30010245605467,105.04214329605102C174.72256245605467,103.04949329605103,172.15453245605468,101.22682229605103,169.0824124560547,101.10394529605102C168.65599445605469,101.08756129605102,168.3484644560547,101.75519329605102,168.58466045605468,102.22622329605103C170.35216245605469,105.75278329605102,173.29905245605468,107.59798329605103,176.51226245605469,107.71266329605102C177.2699824560547,107.73929329605103,177.23986245605468,106.31187329605103,176.51226245605469,106.21971329605103C175.80684245605468,106.13165329605103,174.9920524560547,105.73230329605103,174.4451524560547,105.15887329605103C173.8792324560547,104.56702329605102,173.0834624560547,105.52750329605102,173.6271924560547,106.21561329605103C176.0398624560547,109.25886329605103,179.07394245605468,112.15669329605103,182.6105424560547,110.88289329605102C183.0512424560547,110.72519329605103,183.22874245605468,109.79133329605102,182.74844245605468,109.51895329605102C180.19784245605467,108.08129329605103,177.3825324560547,108.84927329605102,174.8731624560547,110.08418329605102C174.6290424560547,110.20501329605102,174.44832245605468,110.44667329605103,174.44832245605468,110.80509329605103C174.44832245605468,111.01809329605102,174.44832245605468,111.23099329605103,174.44832245605468,111.44399329605102C174.44832245605468,111.85359329605103,174.71147245605468,112.18539329605102,175.02692245605468,112.18949329605103C177.72652245605468,112.22839329605102,180.28024245605468,112.82429329605102,182.79754245605469,114.08179329605102C183.49344245605468,114.42579329605103,183.79314245605468,112.98199329605103,183.1051424560547,112.63999329605103C183.1051424560547,112.63999329605103,183.1051424560547,112.63999329605103,183.1051424560547,112.63999329605103Z" fill="#FFFFFF" fill-opacity="1"/></g><g><path d="M173.9493739086914,105.79511878089905C172.06932390869142,103.86185878089904,171.1958739086914,101.07255878089904,171.1467339086914,98.00883378089905C170.8566449086914,98.22386778089904,170.5665529086914,98.43889878089905,170.2764609086914,98.65393878089905C171.8632439086914,99.69428878089904,172.7303539086914,100.81451878089905,173.5372239086914,102.86246878089905C173.8701139086914,102.61261878089906,174.20300390869141,102.36071878089905,174.53431390869142,102.10881878089904C174.3646939086914,101.68284878089905,174.1348439086914,101.03774878089905,173.72110390869142,100.96196878089904C173.4246739086914,100.90667878089904,173.0822739086914,101.04798878089905,173.0109339086914,101.48214878089905C172.7842539086914,102.85222878089905,173.38980390869142,104.31855878089905,173.4579639086914,105.68453878089905C173.5055139086914,106.63887878089905,174.6611339086914,106.64501878089905,174.6135739086914,105.68453878089905C174.5549239086914,104.53153878089904,173.9430339086914,102.97919878089905,174.1253339086914,101.87944878089905C173.88755390869142,102.05352878089904,173.65135390869142,102.22554878089905,173.4135739086914,102.39962878089905C173.24554390869142,102.36890878089905,173.4975939086914,102.76620878089905,173.5372239086914,102.86246878089905C173.8780439086914,103.72055878089905,174.8719639086914,102.96485878089905,174.53431390869142,102.10881878089904C173.6402639086914,99.83559878089905,172.6209739086914,98.52081878089905,170.85981590869142,97.36577868089904C170.4825379086914,97.11797678089904,169.98002800869142,97.41492878089905,169.99112452869142,98.00883378089905C170.0466067086914,101.43094878089904,171.0230939086914,104.68308878089906,173.1314139086914,106.85185878089905C173.7084239086914,107.44376878089905,174.5311439086914,106.39516878089904,173.9493739086914,105.79511878089905C173.9493739086914,105.79511878089905,173.9493739086914,105.79511878089905,173.9493739086914,105.79511878089905Z" fill="#FFFFFF" fill-opacity="1"/></g><g><path d="M176.5125087036133,118.36733332949511C172.1151087036133,118.49430655749512,168.3566087036133,122.23180455749511,165.12920870361327,125.71945455749511C161.6908587036133,129.43652455749512,158.52837870361327,134.49492455749512,154.42587670361328,137.0159245574951C153.7537507036133,137.42962455749512,154.3402757036133,138.71572455749512,155.0092317036133,138.30412455749513C158.54264870361328,136.1332245574951,161.37698870361328,131.9841245574951,164.2557087036133,128.66852455749512C167.61480870361328,124.80197455749511,171.74740870361327,119.99545455749512,176.5125087036133,119.86028455749512C177.25600870361328,119.83980455749511,177.25750870361327,118.34685415749512,176.5125087036133,118.36733332949511C176.5125087036133,118.36733332949511,176.5125087036133,118.36733332949511,176.5125087036133,118.36733332949511Z" fill="#FFFFFF" fill-opacity="1"/></g><g><path d="M173.38641090240478,121.5931985487793C166.3766109024048,124.5422437487793,159.92321090240478,129.68053374877928,154.04061090240478,135.3308237487793C147.9090109024048,141.2207237487793,142.10875090240478,148.14892374877928,137.87943090240478,156.4267237487793C133.6786429024048,164.6512237487793,132.71801090240479,175.0425237487793,132.71801090240479,184.6986237487793C132.71801090240479,188.3542237487793,133.00968790240478,191.4179237487793,134.1383509024048,194.7745237487793C135.27494090240478,198.1536237487793,136.79515090240477,201.4180237487793,138.5515609024048,204.3179237487793C139.1269809024048,205.26812374877932,141.8170709024048,209.8125237487793,142.8348109024048,207.1072237487793C143.1581109024048,206.24502374877932,142.16106090240478,205.4893237487793,141.83609090240478,206.35362374877928C141.8012209024048,206.4498237487793,141.8059809024048,206.4252237487793,141.46199090240478,206.13852374877928C141.08788090240478,205.82722374877932,140.77242090240478,205.3705237487793,140.46807090240478,204.9569237487793C139.4915809024048,203.62772374877932,138.68154090240478,202.0938237487793,137.9079609024048,200.5661237487793C136.34020090240477,197.47162374877928,134.86913090240478,194.04952374877928,134.16688090240478,190.4431237487793C133.8118009024048,188.6122237487793,133.8863009024048,186.5704237487793,133.87362090240478,184.6986237487793C133.85301090240478,181.8786237487793,133.9941009024048,179.05652374877928,134.21761090240477,176.25082374877928C134.6313509024048,171.0408237487793,135.3859109024048,165.5134237487793,137.23742090240478,160.80312374877929C140.7375509024048,151.8905237487793,146.78981090240478,144.6141237487793,152.7645109024048,138.4682237487793C158.81521090240477,132.2445237487793,165.65691090240477,126.6352437487793,172.99321090240477,123.3319037487793C173.22631090240478,123.2295037487793,173.45931090240478,123.1291537487793,173.69391090240478,123.03290374877929C174.39931090240478,122.7359537487793,174.09811090240478,121.2941977487793,173.38641090240478,121.5931985487793C173.38641090240478,121.5931985487793,173.38641090240478,121.5931985487793,173.38641090240478,121.5931985487793Z" fill="#FFFFFF" fill-opacity="1"/></g></g></svg>