<svg xmlns="http://www.w3.org/2000/svg" xmlns:xlink="http://www.w3.org/1999/xlink" fill="none" version="1.1" width="58" height="56.5438232421875" viewBox="0 0 58 56.5438232421875">
  <defs>
    <filter id="neon-effect" x="-50%" y="-50%" width="200%" height="200%">
      <feGaussianBlur stdDeviation="3" result="coloredBlur"/>
      <feMerge>
        <feMergeNode in="coloredBlur"/>
        <feMergeNode in="SourceGraphic"/>
      </feMerge>
    </filter>
  </defs>
  <g transform="matrix(-1,0,0,1,116,0)" filter="url(#neon-effect)">
    <g>
      <path d="M96.66160000162247,8.419470002929776C96.15920000162248,8.857700002929775,95.41720000162249,8.787980002929775,94.99930000162249,8.250150002929775C94.58130000162248,7.712320002929776,94.65180000162249,6.930470002929775,95.15890000162248,6.487260002929776C95.15890000162248,6.487260002929776,102.23560000162249,0.28726700292977553,102.23560000162249,0.28726700292977553C102.73810000162248,-0.15096599707022446,103.48000000162247,-0.08124699707022447,103.89790000162247,0.45160400292977554C104.31120000162248,0.9844550029297755,104.24540000162247,1.7712800029297755,103.73830000162249,2.2144900029297756C103.73830000162249,2.2144900029297756,96.66160000162247,8.419470002929776,96.66160000162247,8.419470002929776C96.66160000162247,8.419470002929776,96.66160000162247,8.419470002929776,96.66160000162247,8.419470002929776ZM62.283140001622485,30.266400002929778C61.50363000162248,30.510400002929778,60.93073000162248,31.048200002929775,60.55037000162248,31.760300002929775C60.11365000162248,32.582000002929774,59.91643000162248,33.64270000292977,59.93051000162248,34.77820000292977C59.93521000162248,35.26620000292977,59.98217000162248,35.76920000292977,60.06200000162248,36.27710000292977C60.14183000162248,36.79000000292977,60.26392000162248,37.30300000292977,60.41419000162248,37.805900002929775C60.56915000162248,38.31390000292977,60.75699000162248,38.80690000292977,60.977690001622484,39.280000002929775C61.19370000162248,39.73820000292977,61.437890001622485,40.176400002929775,61.705550001622484,40.57480000292978C62.36297000162248,41.54590000292978,63.18006000162248,42.31780000292977,64.12393000162248,42.706200002929776C64.94570000162248,43.04980000292977,65.87079000162248,43.099600002929776,66.86631000162248,42.736100002929774C66.86631000162248,42.736100002929774,66.88510000162248,42.73110000292977,66.88510000162248,42.73110000292977C66.99780000162248,42.691200002929776,67.11050000162248,42.67630000292977,67.22320000162249,42.68630000292978C67.30303000162249,42.691200002929776,67.38286000162248,42.706200002929776,67.46269000162248,42.73110000292977C67.46269000162248,42.73110000292977,67.48617000162248,42.721100002929774,67.48617000162248,42.721100002929774C67.75383000162248,42.626500002929774,68.03090000162248,42.53690000292978,68.30330000162249,42.447200002929776C68.30330000162249,42.447200002929776,69.04990000162248,42.203200002929776,69.04990000162248,42.203200002929776C69.32230000162248,42.118600002929774,69.58050000162248,42.03890000292977,69.82470000162249,41.96420000292977C70.06420000162248,41.88950000292977,70.30840000162249,41.819800002929775,70.55730000162248,41.750000002929774C70.81550000162248,41.675300002929774,71.07380000162249,41.72020000292977,71.28980000162248,41.849600002929776C71.28980000162248,41.849600002929776,71.31330000162248,41.86460000292978,71.31330000162248,41.86460000292978C71.51520000162247,41.99410000292978,71.67020000162248,42.203200002929776,71.74060000162248,42.467100002929776C71.75470000162248,42.512000002929774,71.75940000162248,42.54680000292977,71.76410000162248,42.586700002929774C71.82980000162249,42.90040000292977,71.90970000162248,43.224100002929774,71.96600000162248,43.53780000292977C72.47790000162249,45.96800000292978,72.97560000162248,48.30860000292977,73.63780000162248,50.20590000292977C73.69410000162249,50.395200002929776,73.76450000162248,50.57940000292977,73.83030000162248,50.768700002929776C74.03220000162248,51.366300002929776,74.24350000162248,51.983800002929776,74.47830000162249,52.546500002929776C74.70370000162248,53.09430000292977,74.94320000162249,53.58230000292977,75.21560000162248,53.94090000292977C75.21560000162248,53.94090000292977,75.21560000162248,53.945900002929775,75.21560000162248,53.945900002929775C75.41750000162249,54.21480000292977,75.65230000162248,54.38410000292977,75.92930000162248,54.399000002929775C76.23460000162248,54.414000002929775,76.61490000162249,54.25960000292977,77.09390000162249,53.86620000292977C77.30050000162248,53.66200000292977,77.48840000162248,53.48770000292977,77.68090000162249,53.313400002929775C77.68090000162249,53.313400002929775,77.72320000162247,53.273600002929776,77.72320000162247,53.273600002929776C78.28670000162248,52.75570000292977,78.85020000162248,52.24270000292977,79.09440000162249,51.54060000292977C79.05680000162248,51.510700002929774,79.01450000162248,51.480800002929776,78.96760000162249,51.45590000292977C78.85960000162248,51.39120000292977,78.72340000162248,51.32640000292977,78.58720000162248,51.266700002929774C78.58720000162248,51.266700002929774,78.57310000162248,51.26170000292977,78.57310000162248,51.26170000292977C78.07070000162248,51.03760000292977,77.57290000162249,50.808500002929776,77.21130000162248,50.33040000292977C76.84500000162248,49.847400002929774,76.64780000162249,49.145200002929776,76.78400000162247,47.999800002929774C76.78870000162249,47.93010000292978,76.79810000162249,47.87040000292977,76.80750000162249,47.810600002929775C76.81690000162249,47.74090000292978,76.82630000162249,47.67120000292977,76.83100000162248,47.60140000292977C76.89200000162248,47.083500002929775,76.92490000162249,46.81460000292977,76.90610000162248,46.73990000292977C76.90610000162248,46.73990000292977,76.90610000162248,46.73000000292977,76.90610000162248,46.73000000292977C76.89200000162248,46.710000002929775,76.79340000162247,46.635300002929775,76.59620000162248,46.44110000292977C76.53980000162248,46.38630000292977,76.47880000162249,46.331600002929775,76.42710000162248,46.27180000292977C76.13600000162248,45.98300000292977,75.92930000162248,45.639400002929776,75.79790000162248,45.26090000292977C75.65230000162248,44.84260000292977,75.59590000162248,44.38440000292977,75.60060000162248,43.906300002929775C75.60530000162248,43.438200002929776,75.67110000162248,42.950200002929776,75.76970000162248,42.48710000292977C75.89180000162249,41.924300002929776,76.06550000162248,41.38650000292977,76.23930000162248,40.943300002929774C76.23930000162248,40.943300002929774,76.24870000162248,40.92840000292978,76.24870000162248,40.92840000292978C76.31440000162249,40.76400000292978,76.41770000162248,40.62960000292978,76.53980000162248,40.530000002929775C76.67130000162248,40.420400002929775,76.83100000162248,40.35070000292978,76.99530000162248,40.325800002929775C76.99530000162248,40.325800002929775,77.00470000162248,40.325800002929775,77.00470000162248,40.325800002929775C80.55950000162248,39.802900002929775,83.42860000162248,39.87260000292977,85.83760000162248,40.20130000292978C88.01180000162248,40.50010000292978,89.80090000162248,41.00310000292978,91.39280000162248,41.48110000292977C90.17660000162249,40.01210000292977,89.05900000162248,38.28400000292977,88.04940000162247,36.401600002929776C86.74860000162248,33.97140000292978,85.63100000162248,31.277300002929778,84.72940000162248,28.54830000292978C83.81840000162248,25.789400002929774,83.12810000162249,22.990700002929778,82.69610000162248,20.381200002929774C82.33450000162247,18.190100002929775,82.15140000162248,16.128400002929773,82.17490000162249,14.340600002929776C80.81770000162248,16.407300002929773,78.99110000162248,18.91710000292978,76.30500000162249,21.446900002929773C73.23860000162249,24.330300002929775,69.04990000162248,27.23860000292978,63.15188000162248,29.539300002929778C63.09083000162248,29.559200002929778,63.02979000162248,29.584100002929773,62.96874000162248,29.604000002929773C62.96874000162248,29.604000002929773,62.94057000162248,29.653800002929778,62.94057000162248,29.653800002929778C62.94057000162248,29.653800002929778,62.94526000162248,29.648800002929775,62.83726000162248,29.828100002929773C62.83726000162248,29.828100002929773,62.82787000162248,29.843100002929773,62.82787000162248,29.843100002929773C62.766820001622484,29.942700002929776,62.69169000162248,30.027300002929778,62.60716000162248,30.097000002929775C62.51324000162248,30.171700002929775,62.409930001622484,30.231500002929778,62.29723000162248,30.266400002929778C62.29723000162248,30.266400002929778,62.283140001622485,30.266400002929778,62.283140001622485,30.266400002929778C62.283140001622485,30.266400002929778,62.283140001622485,30.266400002929778,62.283140001622485,30.266400002929778ZM89.07310000162248,34.120800002929776C89.95590000162248,35.91860000292977,90.93270000162248,37.59180000292977,91.98920000162248,39.04100000292977C92.99410000162248,40.41540000292977,94.07420000162247,41.595700002929775,95.21060000162248,42.48710000292977C95.21060000162248,42.48710000292977,95.32800000162248,42.497000002929774,95.32800000162248,42.497000002929774C95.38430000162248,42.502000002929776,95.44070000162247,42.502000002929776,95.48760000162248,42.497000002929774C95.48760000162248,42.497000002929774,95.50640000162248,42.497000002929774,95.50640000162248,42.497000002929774C95.59570000162248,42.49200000292977,95.68490000162248,42.477100002929774,95.77880000162247,42.447200002929776C95.86800000162248,42.41730000292977,95.96190000162248,42.372500002929776,96.06050000162247,42.31280000292978C96.30000000162248,42.053800002929776,96.49730000162248,41.71520000292978,96.65690000162249,41.316800002929774C96.83540000162247,40.87860000292977,96.96680000162249,40.36060000292977,97.05140000162248,39.783000002929775C97.30960000162248,38.07490000292977,97.18760000162249,35.888700002929774,96.78840000162248,33.47340000292977C96.35170000162248,30.834100002929773,95.57690000162248,27.93080000292978,94.60010000162248,25.087200002929777C93.64220000162248,22.293500002929775,92.48700000162248,19.564500002929776,91.25670000162248,17.204000002929774C90.08740000162248,14.953100002929775,88.85240000162248,13.040800002929776,87.65960000162248,11.731100002929775C87.21350000162248,11.238100002929775,86.78150000162248,10.844700002929775,86.37300000162249,10.560800002929776C85.99260000162248,10.296900002929776,85.64040000162248,10.127600002929775,85.31640000162248,10.072800002929776C85.31640000162248,10.072800002929776,85.30700000162248,10.072800002929776,85.30700000162248,10.072800002929776C85.23190000162248,10.057900002929776,85.17080000162248,10.052900002929775,85.12390000162247,10.047900002929776C85.10510000162247,10.047900002929776,85.12390000162247,10.033000002929775,85.11450000162247,10.037900002929776C85.10980000162249,10.037900002929776,85.10980000162249,10.047900002929776,85.08630000162248,10.067800002929776C85.04400000162248,10.107700002929775,84.98300000162249,10.167400002929776,84.91250000162248,10.242100002929776C84.85150000162248,10.301900002929775,84.79050000162249,10.376600002929775,84.73410000162248,10.446300002929776C84.73410000162248,10.446300002929776,84.71530000162248,10.486100002929776,84.71530000162248,10.486100002929776C84.17060000162249,11.681300002929776,83.98280000162248,13.573700002929776,84.10020000162248,15.879400002929776C84.22230000162249,18.219900002929776,84.66370000162249,20.973800002929778,85.38210000162249,23.832300002929777C87.42480000162249,23.334300002929773,89.02140000162248,23.792500002929778,90.12030000162248,24.763500002929774C90.76360000162248,25.331300002929773,91.22850000162248,26.068300002929774,91.51490000162248,26.890000002929774C91.79670000162248,27.70670000292978,91.90000000162249,28.608000002929778,91.81550000162248,29.509400002929773C91.65580000162248,31.282300002929773,90.75890000162248,33.03520000292978,89.07310000162248,34.120800002929776C89.07310000162248,34.120800002929776,89.07310000162248,34.120800002929776,89.07310000162248,34.120800002929776ZM95.04620000162248,44.52390000292977C94.95230000162249,44.538800002929776,94.85840000162248,44.538800002929776,94.76450000162248,44.52390000292977C94.67530000162247,44.50890000292977,94.58600000162248,44.484000002929776,94.50150000162247,44.43920000292977C94.37470000162247,44.41430000292977,94.24790000162248,44.389400002929776,94.12580000162248,44.35950000292977C93.23830000162249,44.165300002929776,92.37430000162249,43.901400002929776,91.44450000162249,43.622500002929776C91.44450000162249,43.622500002929776,91.38350000162248,43.602600002929776,91.38350000162248,43.602600002929776C88.19500000162247,42.64140000292977,84.20820000162249,41.43630000292978,77.82180000162248,42.272900002929774C77.73730000162249,42.531900002929774,77.66680000162248,42.810800002929774,77.61050000162248,43.08470000292977C77.55410000162249,43.373500002929774,77.52120000162247,43.662300002929776,77.51660000162248,43.92630000292977C77.51660000162248,44.13540000292977,77.53530000162249,44.32960000292977,77.57760000162249,44.48900000292977C77.61050000162248,44.60850000292977,77.66210000162248,44.708100002929775,77.73260000162249,44.77780000292977C77.73260000162249,44.77780000292977,77.84530000162249,44.88740000292977,77.84530000162249,44.88740000292977C78.36650000162248,45.39040000292977,78.62010000162249,45.639400002929776,78.76570000162248,46.20710000292977C78.88300000162248,46.66520000292977,78.83140000162248,47.08850000292978,78.72810000162248,47.925100002929774C78.71400000162248,48.03970000292978,78.70460000162248,48.15420000292978,78.68580000162248,48.268700002929776C78.63890000162249,48.672100002929774,78.69990000162248,48.90620000292977,78.81260000162249,49.05060000292978C78.93000000162249,49.20000000292978,79.13190000162248,49.294600002929776,79.33850000162248,49.38430000292978C79.33850000162248,49.38430000292978,79.36200000162248,49.39420000292977,79.36200000162248,49.39420000292977C80.01940000162249,49.69300000292977,80.67690000162249,49.996800002929774,81.01500000162248,50.987800002929774C81.05250000162248,51.07740000292977,81.07600000162248,51.17700000292977,81.08540000162247,51.276600002929776C81.09480000162247,51.37620000292977,81.09480000162247,51.47580000292977,81.07600000162248,51.58040000292977C81.07600000162248,51.58040000292977,81.07600000162248,51.585400002929774,81.07600000162248,51.585400002929774C80.93040000162247,52.38710000292977,80.62050000162247,52.99970000292977,80.23080000162248,53.52260000292977C79.85040000162249,54.03550000292977,79.39960000162247,54.44380000292978,78.95350000162247,54.85220000292978C78.95350000162247,54.85220000292978,78.85020000162248,54.94680000292978,78.85020000162248,54.94680000292978C78.69520000162248,55.086300002929775,78.54490000162248,55.22570000292978,78.39940000162248,55.37510000292978C78.39940000162248,55.37510000292978,78.32420000162249,55.444800002929775,78.32420000162249,55.444800002929775C77.30520000162248,56.306300002929774,76.43650000162248,56.61510000292977,75.67110000162248,56.530400002929774C74.89630000162248,56.44580000292977,74.25290000162248,55.957700002929776,73.70820000162249,55.23070000292977C73.33250000162248,54.732700002929775,73.02260000162248,54.12020000292977,72.74550000162247,53.46780000292977C72.47320000162249,52.82040000292977,72.23840000162248,52.138100002929775,72.01300000162249,51.47580000292977C71.95190000162248,51.291600002929776,71.88620000162248,51.107300002929776,71.82050000162248,50.923000002929776C71.12550000162248,48.93610000292978,70.61360000162249,46.520800002929775,70.08770000162248,44.025900002929774C69.91860000162248,44.07570000292977,69.74960000162248,44.13540000292977,69.58050000162248,44.185200002929776C69.31760000162248,44.269900002929774,69.05930000162249,44.349600002929776,68.81040000162248,44.43420000292977C68.55680000162248,44.518900002929776,68.30790000162249,44.60350000292977,68.06380000162248,44.68320000292977C68.06380000162248,44.68320000292977,68.04970000162248,44.688200002929776,68.04970000162248,44.688200002929776C68.01210000162249,44.698200002929774,67.98393000162248,44.71310000292977,67.96045000162248,44.72300000292977C67.96045000162248,44.72300000292977,67.94636000162248,44.728000002929775,67.94636000162248,44.728000002929775C67.76792000162249,44.80770000292977,67.63644000162247,44.86250000292977,67.48617000162248,44.877400002929775C67.34999000162249,44.892400002929776,67.22320000162249,44.877400002929775,67.07293000162248,44.817700002929776C65.71583000162248,45.21610000292977,64.46203000162248,45.09650000292977,63.34441000162248,44.61850000292977C62.07653000162248,44.070700002929776,60.98708000162248,43.04980000292977,60.123040001622485,41.77000000292978C60.123040001622485,41.77000000292978,60.11365000162248,41.76000000292977,60.11365000162248,41.76000000292977C59.78964000162248,41.26700000292978,59.49849000162248,40.739100002929774,59.24022000162248,40.18140000292977C58.97725200162248,39.618600002929774,58.75654600162248,39.03100000292977,58.573407001622485,38.43340000292977C58.39026800162248,37.83580000292977,58.24939200162248,37.223300002929776,58.15547400162248,36.61080000292977C58.06155690162248,36.00320000292977,58.009902321622484,35.39570000292977,58.00051058062248,34.79810000292977C57.986423001622484,33.294100002929774,58.26347900162248,31.869900002929775,58.878638001622484,30.719500002929777C59.43275000162248,29.688700002929778,60.25922000162248,28.881900002929775,61.38154000162248,28.433700002929776C61.42380000162248,28.364000002929778,61.456670001622484,28.30430000292978,61.49424000162248,28.254500002929774C61.555280001622485,28.169800002929776,61.62103000162248,28.095100002929776,61.710250001622484,28.015400002929773C61.710250001622484,28.015400002929773,61.72903000162248,28.000500002929776,61.72903000162248,28.000500002929776C61.82295000162248,27.915800002929778,61.912170001622485,27.861100002929774,62.01548000162248,27.806300002929774C62.10940000162248,27.76150000292978,62.21740000162248,27.716600002929773,62.36297000162248,27.661900002929777C62.36297000162248,27.661900002929777,62.494460001622485,27.61210000292978,62.494460001622485,27.61210000292978C68.46290000162249,25.281500002929775,72.59060000162248,22.303500002929773,75.55370000162247,19.390200002929774C78.51680000162249,16.477000002929778,80.32000000162247,13.628500002929776,81.62070000162248,11.556800002929776C81.62070000162248,11.556800002929776,81.64890000162248,11.512000002929776,81.64890000162248,11.512000002929776C82.37680000162248,10.356700002929776,82.96380000162247,9.435370002929776,83.55070000162249,8.812880002929775C83.70100000162248,8.653530002929775,83.83250000162248,8.524050002929776,83.97340000162248,8.414490002929776C84.11890000162248,8.299950002929776,84.26920000162248,8.210310002929775,84.44300000162248,8.140590002929775C84.62610000162249,8.070880002929776,84.80450000162249,8.031040002929776,84.99710000162248,8.021080002929775C85.18490000162248,8.011120002929776,85.38680000162248,8.031030002929775,85.62160000162248,8.070870002929775C86.17570000162249,8.165490002929776,86.73920000162248,8.409510002929775,87.30740000162248,8.787980002929775C87.88500000162249,9.171440002929776,88.46730000162248,9.694330002929776,89.04490000162248,10.331800002929775C90.33160000162249,11.746100002929776,91.65580000162248,13.787800002929776,92.90020000162248,16.173200002929775C94.19630000162249,18.653200002929772,95.40780000162249,21.501700002929773,96.40330000162248,24.415000002929773C97.42700000162247,27.402900002929776,98.23470000162249,30.460600002929773,98.69020000162249,33.26430000292977C99.10820000162248,35.84880000292977,99.23030000162248,38.22430000292977,98.93910000162248,40.121600002929775C98.81700000162249,40.91840000292977,98.62450000162248,41.64550000292977,98.35680000162247,42.272900002929774C98.09390000162247,42.89040000292977,97.75110000162249,43.42330000292977,97.32840000162248,43.85650000292977C97.30960000162248,43.876500002929774,97.28620000162249,43.896400002929774,97.26740000162249,43.91630000292977C97.23920000162248,43.93620000292977,97.21100000162248,43.961100002929776,97.18290000162247,43.981000002929775C96.90580000162248,44.175300002929774,96.63810000162249,44.314700002929776,96.37050000162247,44.40430000292977C96.09810000162248,44.499000002929776,95.82580000162248,44.54380000292977,95.55340000162249,44.558700002929776C95.55340000162249,44.558700002929776,95.53460000162248,44.558700002929776,95.53460000162248,44.558700002929776C95.44070000162247,44.558700002929776,95.35150000162248,44.558700002929776,95.26690000162247,44.55370000292977C95.20120000162248,44.538800002929776,95.12140000162248,44.53380000292977,95.04620000162248,44.52390000292977C95.04620000162248,44.52390000292977,95.04620000162248,44.52390000292977,95.04620000162248,44.52390000292977ZM106.60280000162248,39.08080000292978C105.95000000162248,39.110700002929775,105.40530000162248,38.57290000292977,105.38180000162248,37.880600002929775C105.35370000162249,37.188400002929775,105.86080000162248,36.61080000292977,106.51350000162248,36.585900002929776C106.51350000162248,36.585900002929776,114.77830000162248,36.25720000292977,114.77830000162248,36.25720000292977C115.42630000162248,36.23730000292977,115.97100000162249,36.775100002929776,115.99920000162248,37.457400002929774C116.02270000162248,38.14960000292977,115.52020000162248,38.72720000292978,114.86750000162249,38.757100002929775C114.86750000162249,38.757100002929775,106.60280000162248,39.08080000292978,106.60280000162248,39.08080000292978C106.60280000162248,39.08080000292978,106.60280000162248,39.08080000292978,106.60280000162248,39.08080000292978ZM106.36800000162248,30.565200002929778C105.71990000162248,30.654800002929775,105.12830000162248,30.171700002929775,105.04370000162248,29.494500002929776C104.95920000162249,28.807200002929775,105.41470000162249,28.179800002929774,106.05340000162249,28.090100002929773C106.05340000162249,28.090100002929773,113.68880000162248,27.01450000292978,113.68880000162248,27.01450000292978C114.33690000162248,26.92480000292978,114.92860000162248,27.40790000292978,115.01310000162249,28.085200002929774C115.09760000162248,28.77240000292978,114.64210000162248,29.399900002929776,114.00350000162248,29.489500002929773C114.00350000162248,29.489500002929773,106.36800000162248,30.565200002929778,106.36800000162248,30.565200002929778C106.36800000162248,30.565200002929778,106.36800000162248,30.565200002929778,106.36800000162248,30.565200002929778ZM104.76200000162248,22.746700002929778C104.14680000162248,22.970800002929778,103.47060000162247,22.627200002929776,103.25930000162248,21.974800002929776C103.04330000162248,21.322400002929776,103.37200000162248,20.605300002929773,103.98720000162248,20.381200002929774C103.98720000162248,20.381200002929774,111.81520000162249,17.497900002929775,111.81520000162249,17.497900002929775C112.43030000162248,17.263800002929777,113.10660000162248,17.617400002929777,113.31790000162249,18.269700002929774C113.53390000162248,18.922100002929774,113.20520000162247,19.639200002929776,112.59000000162249,19.863300002929776C112.59000000162249,19.863300002929776,104.76200000162248,22.746700002929778,104.76200000162248,22.746700002929778C104.76200000162248,22.746700002929778,104.76200000162248,22.746700002929778,104.76200000162248,22.746700002929778ZM101.07100000162248,15.222000002929775C100.50750000162247,15.565600002929775,99.78440000162249,15.356500002929776,99.46500000162249,14.753900002929775C99.14100000162247,14.156300002929775,99.33830000162249,13.394400002929775,99.90650000162248,13.050800002929776C99.90650000162248,13.050800002929776,107.32590000162247,8.538990002929776,107.32590000162247,8.538990002929776C107.88940000162248,8.195370002929776,108.61260000162248,8.404530002929775,108.93190000162248,9.007100002929775C109.25590000162248,9.604690002929775,109.05870000162248,10.366600002929776,108.49050000162248,10.710200002929776C108.49050000162248,10.710200002929776,101.07100000162248,15.222000002929775,101.07100000162248,15.222000002929775C101.07100000162248,15.222000002929775,101.07100000162248,15.222000002929775,101.07100000162248,15.222000002929775Z" fill-rule="evenodd" fill="#FFFB00" fill-opacity="1"/>
    </g>
  </g>
</svg>
