<svg xmlns="http://www.w3.org/2000/svg" xmlns:xlink="http://www.w3.org/1999/xlink" fill="none" version="1.1" width="58" height="56.5438232421875" viewBox="0 0 58 56.5438232421875"><g><g><path d="M38.66160000162248,8.419470002929776C38.15920000162248,8.857700002929775,37.41720000162248,8.787980002929775,36.99930000162248,8.250150002929775C36.58130000162248,7.712320002929776,36.65180000162248,6.930470002929775,37.158900001622484,6.487260002929776C37.158900001622484,6.487260002929776,44.23560000162248,0.28726700292977553,44.23560000162248,0.28726700292977553C44.738100001622485,-0.15096599707022446,45.48000000162248,-0.08124699707022447,45.89790000162248,0.45160400292977554C46.31120000162248,0.9844550029297755,46.24540000162248,1.7712800029297755,45.738300001622484,2.2144900029297756C45.738300001622484,2.2144900029297756,38.66160000162248,8.419470002929776,38.66160000162248,8.419470002929776C38.66160000162248,8.419470002929776,38.66160000162248,8.419470002929776,38.66160000162248,8.419470002929776ZM4.283140001622485,30.266400002929778C3.503630001622484,30.510400002929778,2.9307300016224844,31.048200002929775,2.5503700016224844,31.760300002929775C2.113650001622484,32.582000002929774,1.9164300016224844,33.64270000292977,1.9305100016224843,34.77820000292977C1.9352100016224845,35.26620000292977,1.9821700016224844,35.76920000292977,2.062000001622484,36.27710000292977C2.1418300016224845,36.79000000292977,2.2639200016224845,37.30300000292977,2.4141900016224844,37.805900002929775C2.5691500016224844,38.31390000292977,2.7569900016224844,38.80690000292977,2.9776900016224843,39.280000002929775C3.1937000016224846,39.73820000292977,3.4378900016224843,40.176400002929775,3.7055500016224845,40.57480000292978C4.362970001622484,41.54590000292978,5.1800600016224845,42.31780000292977,6.123930001622484,42.706200002929776C6.945700001622485,43.04980000292977,7.870790001622485,43.099600002929776,8.866310001622486,42.736100002929774C8.866310001622486,42.736100002929774,8.885100001622485,42.73110000292977,8.885100001622485,42.73110000292977C8.997800001622485,42.691200002929776,9.110500001622485,42.67630000292977,9.223200001622486,42.68630000292978C9.303030001622485,42.691200002929776,9.382860001622486,42.706200002929776,9.462690001622486,42.73110000292977C9.462690001622486,42.73110000292977,9.486170001622485,42.721100002929774,9.486170001622485,42.721100002929774C9.753830001622486,42.626500002929774,10.030900001622486,42.53690000292978,10.303300001622485,42.447200002929776C10.303300001622485,42.447200002929776,11.049900001622484,42.203200002929776,11.049900001622484,42.203200002929776C11.322300001622486,42.118600002929774,11.580500001622486,42.03890000292977,11.824700001622485,41.96420000292977C12.064200001622485,41.88950000292977,12.308400001622486,41.819800002929775,12.557300001622485,41.750000002929774C12.815500001622485,41.675300002929774,13.073800001622486,41.72020000292977,13.289800001622485,41.849600002929776C13.289800001622485,41.849600002929776,13.313300001622485,41.86460000292978,13.313300001622485,41.86460000292978C13.515200001622485,41.99410000292978,13.670200001622485,42.203200002929776,13.740600001622486,42.467100002929776C13.754700001622485,42.512000002929774,13.759400001622485,42.54680000292977,13.764100001622484,42.586700002929774C13.829800001622486,42.90040000292977,13.909700001622486,43.224100002929774,13.966000001622485,43.53780000292977C14.477900001622485,45.96800000292978,14.975600001622485,48.30860000292977,15.637800001622486,50.20590000292977C15.694100001622486,50.395200002929776,15.764500001622485,50.57940000292977,15.830300001622485,50.768700002929776C16.032200001622485,51.366300002929776,16.243500001622486,51.983800002929776,16.478300001622486,52.546500002929776C16.703700001622487,53.09430000292977,16.943200001622486,53.58230000292977,17.215600001622484,53.94090000292977C17.215600001622484,53.94090000292977,17.215600001622484,53.945900002929775,17.215600001622484,53.945900002929775C17.417500001622486,54.21480000292977,17.652300001622486,54.38410000292977,17.929300001622487,54.399000002929775C18.234600001622486,54.414000002929775,18.614900001622484,54.25960000292977,19.093900001622487,53.86620000292977C19.300500001622485,53.66200000292977,19.488400001622484,53.48770000292977,19.680900001622486,53.313400002929775C19.680900001622486,53.313400002929775,19.723200001622484,53.273600002929776,19.723200001622484,53.273600002929776C20.286700001622485,52.75570000292977,20.850200001622486,52.24270000292977,21.094400001622486,51.54060000292977C21.056800001622484,51.510700002929774,21.014500001622487,51.480800002929776,20.967600001622486,51.45590000292977C20.859600001622486,51.39120000292977,20.723400001622487,51.32640000292977,20.587200001622485,51.266700002929774C20.587200001622485,51.266700002929774,20.573100001622485,51.26170000292977,20.573100001622485,51.26170000292977C20.070700001622484,51.03760000292977,19.572900001622486,50.808500002929776,19.211300001622487,50.33040000292977C18.845000001622484,49.847400002929774,18.647800001622485,49.145200002929776,18.784000001622484,47.999800002929774C18.788700001622484,47.93010000292978,18.798100001622487,47.87040000292977,18.807500001622486,47.810600002929775C18.816900001622486,47.74090000292978,18.826300001622485,47.67120000292977,18.831000001622485,47.60140000292977C18.892000001622485,47.083500002929775,18.924900001622486,46.81460000292977,18.906100001622484,46.73990000292977C18.906100001622484,46.73990000292977,18.906100001622484,46.73000000292977,18.906100001622484,46.73000000292977C18.892000001622485,46.710000002929775,18.793400001622484,46.635300002929775,18.596200001622485,46.44110000292977C18.539800001622485,46.38630000292977,18.478800001622485,46.331600002929775,18.427100001622485,46.27180000292977C18.136000001622484,45.98300000292977,17.929300001622487,45.639400002929776,17.797900001622484,45.26090000292977C17.652300001622486,44.84260000292977,17.595900001622486,44.38440000292977,17.600600001622485,43.906300002929775C17.605300001622485,43.438200002929776,17.671100001622484,42.950200002929776,17.769700001622486,42.48710000292977C17.891800001622485,41.924300002929776,18.065500001622485,41.38650000292977,18.239300001622485,40.943300002929774C18.239300001622485,40.943300002929774,18.248700001622485,40.92840000292978,18.248700001622485,40.92840000292978C18.314400001622484,40.76400000292978,18.417700001622485,40.62960000292978,18.539800001622485,40.530000002929775C18.671300001622484,40.420400002929775,18.831000001622485,40.35070000292978,18.995300001622486,40.325800002929775C18.995300001622486,40.325800002929775,19.004700001622485,40.325800002929775,19.004700001622485,40.325800002929775C22.559500001622485,39.802900002929775,25.428600001622485,39.87260000292977,27.837600001622484,40.20130000292978C30.011800001622486,40.50010000292978,31.800900001622484,41.00310000292978,33.39280000162248,41.48110000292977C32.17660000162248,40.01210000292977,31.059000001622486,38.28400000292977,30.049400001622484,36.401600002929776C28.748600001622485,33.97140000292978,27.631000001622485,31.277300002929778,26.729400001622484,28.54830000292978C25.818400001622486,25.789400002929774,25.128100001622485,22.990700002929778,24.696100001622487,20.381200002929774C24.334500001622484,18.190100002929775,24.151400001622484,16.128400002929773,24.174900001622486,14.340600002929776C22.817700001622484,16.407300002929773,20.991100001622485,18.91710000292978,18.305000001622485,21.446900002929773C15.238600001622485,24.330300002929775,11.049900001622484,27.23860000292978,5.151880001622485,29.539300002929778C5.090830001622485,29.559200002929778,5.029790001622485,29.584100002929773,4.968740001622485,29.604000002929773C4.968740001622485,29.604000002929773,4.9405700016224845,29.653800002929778,4.9405700016224845,29.653800002929778C4.9405700016224845,29.653800002929778,4.945260001622485,29.648800002929775,4.837260001622484,29.828100002929773C4.837260001622484,29.828100002929773,4.827870001622484,29.843100002929773,4.827870001622484,29.843100002929773C4.766820001622484,29.942700002929776,4.691690001622485,30.027300002929778,4.607160001622485,30.097000002929775C4.513240001622484,30.171700002929775,4.4099300016224845,30.231500002929778,4.297230001622484,30.266400002929778C4.297230001622484,30.266400002929778,4.283140001622485,30.266400002929778,4.283140001622485,30.266400002929778C4.283140001622485,30.266400002929778,4.283140001622485,30.266400002929778,4.283140001622485,30.266400002929778ZM31.073100001622485,34.120800002929776C31.955900001622485,35.91860000292977,32.93270000162248,37.59180000292977,33.98920000162248,39.04100000292977C34.994100001622485,40.41540000292977,36.07420000162248,41.595700002929775,37.21060000162248,42.48710000292977C37.21060000162248,42.48710000292977,37.328000001622485,42.497000002929774,37.328000001622485,42.497000002929774C37.384300001622485,42.502000002929776,37.44070000162248,42.502000002929776,37.48760000162248,42.497000002929774C37.48760000162248,42.497000002929774,37.50640000162248,42.497000002929774,37.50640000162248,42.497000002929774C37.59570000162248,42.49200000292977,37.68490000162248,42.477100002929774,37.77880000162248,42.447200002929776C37.868000001622484,42.41730000292977,37.96190000162248,42.372500002929776,38.06050000162248,42.31280000292978C38.30000000162248,42.053800002929776,38.497300001622484,41.71520000292978,38.65690000162248,41.316800002929774C38.83540000162248,40.87860000292977,38.96680000162248,40.36060000292977,39.05140000162248,39.783000002929775C39.309600001622485,38.07490000292977,39.187600001622485,35.888700002929774,38.788400001622485,33.47340000292977C38.35170000162248,30.834100002929773,37.576900001622484,27.93080000292978,36.60010000162248,25.087200002929777C35.642200001622484,22.293500002929775,34.487000001622484,19.564500002929776,33.256700001622484,17.204000002929774C32.087400001622484,14.953100002929775,30.852400001622485,13.040800002929776,29.659600001622486,11.731100002929775C29.213500001622485,11.238100002929775,28.781500001622486,10.844700002929775,28.373000001622486,10.560800002929776C27.992600001622485,10.296900002929776,27.640400001622485,10.127600002929775,27.316400001622487,10.072800002929776C27.316400001622487,10.072800002929776,27.307000001622484,10.072800002929776,27.307000001622484,10.072800002929776C27.231900001622485,10.057900002929776,27.170800001622485,10.052900002929775,27.123900001622484,10.047900002929776C27.105100001622485,10.047900002929776,27.123900001622484,10.033000002929775,27.114500001622485,10.037900002929776C27.109800001622485,10.037900002929776,27.109800001622485,10.047900002929776,27.086300001622487,10.067800002929776C27.044000001622486,10.107700002929775,26.983000001622486,10.167400002929776,26.912500001622487,10.242100002929776C26.851500001622487,10.301900002929775,26.790500001622487,10.376600002929775,26.734100001622487,10.446300002929776C26.734100001622487,10.446300002929776,26.715300001622484,10.486100002929776,26.715300001622484,10.486100002929776C26.170600001622486,11.681300002929776,25.982800001622486,13.573700002929776,26.100200001622486,15.879400002929776C26.222300001622486,18.219900002929776,26.663700001622484,20.973800002929778,27.382100001622486,23.832300002929777C29.424800001622486,23.334300002929773,31.021400001622485,23.792500002929778,32.12030000162248,24.763500002929774C32.76360000162248,25.331300002929773,33.22850000162248,26.068300002929774,33.51490000162248,26.890000002929774C33.79670000162248,27.70670000292978,33.90000000162248,28.608000002929778,33.81550000162248,29.509400002929773C33.65580000162248,31.282300002929773,32.75890000162248,33.03520000292978,31.073100001622485,34.120800002929776C31.073100001622485,34.120800002929776,31.073100001622485,34.120800002929776,31.073100001622485,34.120800002929776ZM37.04620000162248,44.52390000292977C36.95230000162248,44.538800002929776,36.858400001622485,44.538800002929776,36.76450000162248,44.52390000292977C36.67530000162248,44.50890000292977,36.58600000162248,44.484000002929776,36.50150000162248,44.43920000292977C36.37470000162248,44.41430000292977,36.24790000162248,44.389400002929776,36.12580000162248,44.35950000292977C35.238300001622484,44.165300002929776,34.37430000162248,43.901400002929776,33.44450000162248,43.622500002929776C33.44450000162248,43.622500002929776,33.38350000162248,43.602600002929776,33.38350000162248,43.602600002929776C30.195000001622486,42.64140000292977,26.208200001622487,41.43630000292978,19.821800001622485,42.272900002929774C19.737300001622486,42.531900002929774,19.666800001622484,42.810800002929774,19.610500001622484,43.08470000292977C19.554100001622484,43.373500002929774,19.521200001622486,43.662300002929776,19.516600001622486,43.92630000292977C19.516600001622486,44.13540000292977,19.535300001622485,44.32960000292977,19.577600001622486,44.48900000292977C19.610500001622484,44.60850000292977,19.662100001622484,44.708100002929775,19.732600001622487,44.77780000292977C19.732600001622487,44.77780000292977,19.845300001622487,44.88740000292977,19.845300001622487,44.88740000292977C20.366500001622484,45.39040000292977,20.620100001622486,45.639400002929776,20.765700001622484,46.20710000292977C20.883000001622484,46.66520000292977,20.831400001622484,47.08850000292978,20.728100001622487,47.925100002929774C20.714000001622484,48.03970000292978,20.704600001622484,48.15420000292978,20.685800001622486,48.268700002929776C20.638900001622485,48.672100002929774,20.699900001622485,48.90620000292977,20.812600001622485,49.05060000292978C20.930000001622485,49.20000000292978,21.131900001622487,49.294600002929776,21.338500001622485,49.38430000292978C21.338500001622485,49.38430000292978,21.362000001622484,49.39420000292977,21.362000001622484,49.39420000292977C22.019400001622486,49.69300000292977,22.676900001622485,49.996800002929774,23.015000001622486,50.987800002929774C23.052500001622484,51.07740000292977,23.076000001622486,51.17700000292977,23.085400001622485,51.276600002929776C23.094800001622485,51.37620000292977,23.094800001622485,51.47580000292977,23.076000001622486,51.58040000292977C23.076000001622486,51.58040000292977,23.076000001622486,51.585400002929774,23.076000001622486,51.585400002929774C22.930400001622484,52.38710000292977,22.620500001622485,52.99970000292977,22.230800001622484,53.52260000292977C21.850400001622486,54.03550000292977,21.399600001622485,54.44380000292978,20.953500001622483,54.85220000292978C20.953500001622483,54.85220000292978,20.850200001622486,54.94680000292978,20.850200001622486,54.94680000292978C20.695200001622485,55.086300002929775,20.544900001622484,55.22570000292978,20.399400001622485,55.37510000292978C20.399400001622485,55.37510000292978,20.324200001622486,55.444800002929775,20.324200001622486,55.444800002929775C19.305200001622485,56.306300002929774,18.436500001622484,56.61510000292977,17.671100001622484,56.530400002929774C16.896300001622485,56.44580000292977,16.252900001622486,55.957700002929776,15.708200001622485,55.23070000292977C15.332500001622485,54.732700002929775,15.022600001622486,54.12020000292977,14.745500001622485,53.46780000292977C14.473200001622486,52.82040000292977,14.238400001622486,52.138100002929775,14.013000001622485,51.47580000292977C13.951900001622485,51.291600002929776,13.886200001622486,51.107300002929776,13.820500001622484,50.923000002929776C13.125500001622486,48.93610000292978,12.613600001622485,46.520800002929775,12.087700001622485,44.025900002929774C11.918600001622485,44.07570000292977,11.749600001622484,44.13540000292977,11.580500001622486,44.185200002929776C11.317600001622486,44.269900002929774,11.059300001622486,44.349600002929776,10.810400001622485,44.43420000292977C10.556800001622486,44.518900002929776,10.307900001622485,44.60350000292977,10.063800001622486,44.68320000292977C10.063800001622486,44.68320000292977,10.049700001622485,44.688200002929776,10.049700001622485,44.688200002929776C10.012100001622485,44.698200002929774,9.983930001622486,44.71310000292977,9.960450001622485,44.72300000292977C9.960450001622485,44.72300000292977,9.946360001622486,44.728000002929775,9.946360001622486,44.728000002929775C9.767920001622485,44.80770000292977,9.636440001622486,44.86250000292977,9.486170001622485,44.877400002929775C9.349990001622485,44.892400002929776,9.223200001622486,44.877400002929775,9.072930001622485,44.817700002929776C7.715830001622485,45.21610000292977,6.462030001622485,45.09650000292977,5.344410001622484,44.61850000292977C4.076530001622484,44.070700002929776,2.9870800016224845,43.04980000292977,2.1230400016224844,41.77000000292978C2.1230400016224844,41.77000000292978,2.113650001622484,41.76000000292977,2.113650001622484,41.76000000292977C1.7896400016224843,41.26700000292978,1.4984900016224847,40.739100002929774,1.2402200016224847,40.18140000292977C0.9772520016224845,39.618600002929774,0.7565460016224845,39.03100000292977,0.5734070016224845,38.43340000292977C0.3902680016224845,37.83580000292977,0.24939200162248448,37.223300002929776,0.15547400162248448,36.61080000292977C0.06155690162248448,36.00320000292977,0.00990232162248448,35.39570000292977,0.0005105806224844801,34.79810000292977C-0.01357699837751552,33.294100002929774,0.2634790016224845,31.869900002929775,0.8786380016224845,30.719500002929777C1.4327500016224843,29.688700002929778,2.2592200016224844,28.881900002929775,3.3815400016224846,28.433700002929776C3.4238000016224843,28.364000002929778,3.4566700016224843,28.30430000292978,3.4942400016224844,28.254500002929774C3.5552800016224846,28.169800002929776,3.6210300016224846,28.095100002929776,3.710250001622484,28.015400002929773C3.710250001622484,28.015400002929773,3.729030001622484,28.000500002929776,3.729030001622484,28.000500002929776C3.8229500016224844,27.915800002929778,3.9121700016224845,27.861100002929774,4.0154800016224845,27.806300002929774C4.109400001622484,27.76150000292978,4.217400001622484,27.716600002929773,4.362970001622484,27.661900002929777C4.362970001622484,27.661900002929777,4.4944600016224845,27.61210000292978,4.4944600016224845,27.61210000292978C10.462900001622485,25.281500002929775,14.590600001622485,22.303500002929773,17.553700001622484,19.390200002929774C20.516800001622485,16.477000002929778,22.320000001622486,13.628500002929776,23.620700001622485,11.556800002929776C23.620700001622485,11.556800002929776,23.648900001622486,11.512000002929776,23.648900001622486,11.512000002929776C24.376800001622485,10.356700002929776,24.963800001622484,9.435370002929776,25.550700001622484,8.812880002929775C25.701000001622486,8.653530002929775,25.832500001622485,8.524050002929776,25.973400001622487,8.414490002929776C26.118900001622485,8.299950002929776,26.269200001622487,8.210310002929775,26.443000001622487,8.140590002929775C26.626100001622486,8.070880002929776,26.804500001622486,8.031040002929776,26.997100001622485,8.021080002929775C27.184900001622484,8.011120002929776,27.386800001622486,8.031030002929775,27.621600001622486,8.070870002929775C28.175700001622484,8.165490002929776,28.739200001622486,8.409510002929775,29.307400001622486,8.787980002929775C29.885000001622487,9.171440002929776,30.467300001622487,9.694330002929776,31.044900001622484,10.331800002929775C32.33160000162248,11.746100002929776,33.65580000162248,13.787800002929776,34.90020000162248,16.173200002929775C36.19630000162248,18.653200002929772,37.40780000162248,21.501700002929773,38.40330000162248,24.415000002929773C39.42700000162248,27.402900002929776,40.23470000162248,30.460600002929773,40.69020000162248,33.26430000292977C41.10820000162248,35.84880000292977,41.23030000162248,38.22430000292977,40.939100001622485,40.121600002929775C40.81700000162248,40.91840000292977,40.62450000162248,41.64550000292977,40.35680000162248,42.272900002929774C40.09390000162248,42.89040000292977,39.75110000162248,43.42330000292977,39.328400001622484,43.85650000292977C39.309600001622485,43.876500002929774,39.28620000162248,43.896400002929774,39.267400001622484,43.91630000292977C39.23920000162248,43.93620000292977,39.21100000162248,43.961100002929776,39.18290000162248,43.981000002929775C38.90580000162248,44.175300002929774,38.63810000162248,44.314700002929776,38.37050000162248,44.40430000292977C38.098100001622484,44.499000002929776,37.82580000162248,44.54380000292977,37.553400001622485,44.558700002929776C37.553400001622485,44.558700002929776,37.53460000162248,44.558700002929776,37.53460000162248,44.558700002929776C37.44070000162248,44.558700002929776,37.35150000162248,44.558700002929776,37.26690000162248,44.55370000292977C37.20120000162248,44.538800002929776,37.12140000162248,44.53380000292977,37.04620000162248,44.52390000292977C37.04620000162248,44.52390000292977,37.04620000162248,44.52390000292977,37.04620000162248,44.52390000292977ZM48.602800001622484,39.08080000292978C47.950000001622485,39.110700002929775,47.40530000162248,38.57290000292977,47.38180000162248,37.880600002929775C47.353700001622485,37.188400002929775,47.86080000162248,36.61080000292977,48.51350000162248,36.585900002929776C48.51350000162248,36.585900002929776,56.77830000162248,36.25720000292977,56.77830000162248,36.25720000292977C57.42630000162248,36.23730000292977,57.97100000162248,36.775100002929776,57.999200001622484,37.457400002929774C58.02270000162248,38.14960000292977,57.520200001622484,38.72720000292978,56.86750000162248,38.757100002929775C56.86750000162248,38.757100002929775,48.602800001622484,39.08080000292978,48.602800001622484,39.08080000292978C48.602800001622484,39.08080000292978,48.602800001622484,39.08080000292978,48.602800001622484,39.08080000292978ZM48.368000001622484,30.565200002929778C47.719900001622484,30.654800002929775,47.128300001622485,30.171700002929775,47.04370000162248,29.494500002929776C46.959200001622484,28.807200002929775,47.414700001622485,28.179800002929774,48.053400001622485,28.090100002929773C48.053400001622485,28.090100002929773,55.68880000162248,27.01450000292978,55.68880000162248,27.01450000292978C56.33690000162248,26.92480000292978,56.928600001622485,27.40790000292978,57.01310000162248,28.085200002929774C57.09760000162248,28.77240000292978,56.64210000162248,29.399900002929776,56.003500001622484,29.489500002929773C56.003500001622484,29.489500002929773,48.368000001622484,30.565200002929778,48.368000001622484,30.565200002929778C48.368000001622484,30.565200002929778,48.368000001622484,30.565200002929778,48.368000001622484,30.565200002929778ZM46.76200000162248,22.746700002929778C46.14680000162248,22.970800002929778,45.47060000162248,22.627200002929776,45.259300001622485,21.974800002929776C45.043300001622484,21.322400002929776,45.37200000162248,20.605300002929773,45.98720000162248,20.381200002929774C45.98720000162248,20.381200002929774,53.81520000162248,17.497900002929775,53.81520000162248,17.497900002929775C54.430300001622484,17.263800002929777,55.10660000162248,17.617400002929777,55.31790000162248,18.269700002929774C55.533900001622484,18.922100002929774,55.20520000162248,19.639200002929776,54.590000001622485,19.863300002929776C54.590000001622485,19.863300002929776,46.76200000162248,22.746700002929778,46.76200000162248,22.746700002929778C46.76200000162248,22.746700002929778,46.76200000162248,22.746700002929778,46.76200000162248,22.746700002929778ZM43.07100000162248,15.222000002929775C42.50750000162248,15.565600002929775,41.78440000162248,15.356500002929776,41.465000001622485,14.753900002929775C41.14100000162248,14.156300002929775,41.33830000162248,13.394400002929775,41.90650000162248,13.050800002929776C41.90650000162248,13.050800002929776,49.32590000162248,8.538990002929776,49.32590000162248,8.538990002929776C49.889400001622484,8.195370002929776,50.61260000162248,8.404530002929775,50.93190000162248,9.007100002929775C51.25590000162248,9.604690002929775,51.05870000162248,10.366600002929776,50.49050000162248,10.710200002929776C50.49050000162248,10.710200002929776,43.07100000162248,15.222000002929775,43.07100000162248,15.222000002929775C43.07100000162248,15.222000002929775,43.07100000162248,15.222000002929775,43.07100000162248,15.222000002929775Z" fill-rule="evenodd" fill="#FFFB00" fill-opacity="1"/></g></g></svg>